<svg width="133" height="125" viewBox="0 0 133 125" fill="none" xmlns="http://www.w3.org/2000/svg">
<path d="M0.361633 45.2381C0.361633 29.4033 0.361633 21.4859 3.62172 15.4378C6.48937 10.1177 11.0652 5.79237 16.6932 3.08166C23.0915 0 31.4673 0 48.219 0H84.7417C101.493 0 109.869 0 116.267 3.08166C121.896 5.79237 126.471 10.1177 129.339 15.4378C132.599 21.4859 132.599 29.4033 132.599 45.2381V79.7619C132.599 95.5967 132.599 103.514 129.339 109.562C126.471 114.882 121.896 119.208 116.267 121.918C109.869 125 101.493 125 84.7417 125H48.219C31.4673 125 23.0915 125 16.6932 121.918C11.0652 119.208 6.48937 114.882 3.62172 109.562C0.361633 103.514 0.361633 95.5967 0.361633 79.7619V45.2381Z" fill="#330000"/>
<path d="M64.442 78.5547H43.9502L39.7809 91.1114C39.6651 91.5779 39.2107 91.9084 38.7163 91.8855H28.3374C27.7455 91.8855 27.5385 91.5701 27.7164 90.9394L45.4581 41.4009C45.6357 40.885 45.8132 40.2973 45.9906 39.6378C46.2226 38.4903 46.3414 37.3241 46.3454 36.1547C46.2946 35.8093 46.6157 35.5042 46.9664 35.5526H61.0709C61.4842 35.5526 61.7207 35.696 61.7807 35.9827L81.9179 91.0253C82.0952 91.5992 81.9177 91.8859 81.3854 91.8854H69.8531C69.4486 91.9289 69.0624 91.6668 68.9661 91.2834L64.442 78.5547ZM47.1437 67.7183H61.1597C58.8569 60.28 56.2581 52.9394 54.1518 45.4432C51.8793 52.9521 49.3998 60.4307 47.1437 67.7183Z" fill="#FF9A00"/>
<path d="M93.8924 44.6689C92.9876 44.7041 92.0854 44.5538 91.2446 44.2277C90.4039 43.9017 89.6436 43.4072 89.0134 42.7768C88.385 42.119 87.8969 41.3472 87.5772 40.5059C87.2575 39.6646 87.1124 38.7704 87.1503 37.8745C87.1181 36.9875 87.2792 36.104 87.6232 35.2815C87.9671 34.459 88.4861 33.7161 89.1463 33.1013C89.8002 32.4928 90.5719 32.0161 91.417 31.6987C92.2621 31.3814 93.1637 31.2296 94.0697 31.2522C96.1989 31.2522 97.8696 31.8686 99.0819 33.1013C99.6938 33.7419 100.169 34.4932 100.481 35.3123C100.793 36.1314 100.936 37.0021 100.9 37.8745C100.937 38.7738 100.788 39.6712 100.46 40.5134C100.132 41.3555 99.6336 42.1252 98.9931 42.7768C98.3237 43.4165 97.5249 43.9149 96.6471 44.2405C95.7692 44.5662 94.8313 44.712 93.8924 44.6689ZM87.7713 91.0251V49.915C87.7713 49.3991 88.007 49.141 88.481 49.141H99.3924C99.8651 49.141 100.102 49.399 100.102 49.915V91.0251C100.102 91.5989 99.8655 91.8856 99.3924 91.8852H88.5698C88.0376 91.8852 87.7715 91.5985 87.7713 91.0251Z" fill="#FF9A00"/>
</svg>
