<svg width="76" height="125" viewBox="0 0 76 125" fill="none" xmlns="http://www.w3.org/2000/svg">
<path fill-rule="evenodd" clip-rule="evenodd" d="M38.1143 62.5C38.1143 50.994 46.5433 41.6666 56.941 41.6666C67.3387 41.6666 75.7677 50.994 75.7677 62.5C75.7677 74.0059 67.3387 83.3333 56.941 83.3333C46.5433 83.3333 38.1143 74.0059 38.1143 62.5Z" fill="#1ABCFE"/>
<path fill-rule="evenodd" clip-rule="evenodd" d="M0.460693 104.167C0.460693 92.6607 8.88971 83.3333 19.2874 83.3333H38.1142V104.167C38.1142 115.673 29.6852 125 19.2874 125C8.88971 125 0.460693 115.673 0.460693 104.167Z" fill="#0ACF83"/>
<path fill-rule="evenodd" clip-rule="evenodd" d="M38.1143 0V41.6667H56.941C67.3387 41.6667 75.7677 32.3393 75.7677 20.8333C75.7677 9.3274 67.3387 0 56.941 0H38.1143Z" fill="#FF7262"/>
<path fill-rule="evenodd" clip-rule="evenodd" d="M0.460693 20.8333C0.460693 32.3393 8.88971 41.6667 19.2874 41.6667H38.1142V0H19.2874C8.88971 0 0.460693 9.3274 0.460693 20.8333Z" fill="#F24E1E"/>
<path fill-rule="evenodd" clip-rule="evenodd" d="M0.460693 62.5C0.460693 74.0059 8.88971 83.3333 19.2874 83.3333H38.1142V41.6666H19.2874C8.88971 41.6666 0.460693 50.994 0.460693 62.5Z" fill="#A259FF"/>
</svg>
