<svg width="130" height="125" viewBox="0 0 130 125" fill="none" xmlns="http://www.w3.org/2000/svg">
<path d="M0.520386 45.2381C0.520386 29.4033 0.520386 21.4859 3.70285 15.4378C6.50223 10.1177 10.9691 5.79237 16.4631 3.08166C22.7091 0 30.8855 0 47.2383 0H82.8914C99.2442 0 107.421 0 113.667 3.08166C119.161 5.79237 123.627 10.1177 126.427 15.4378C129.609 21.4859 129.609 29.4033 129.609 45.2381V79.7619C129.609 95.5967 129.609 103.514 126.427 109.562C123.627 114.882 119.161 119.208 113.667 121.918C107.421 125 99.2442 125 82.8914 125H47.2383C30.8855 125 22.7091 125 16.4631 121.918C10.9691 119.208 6.50223 114.882 3.70285 109.562C0.520386 103.514 0.520386 95.5967 0.520386 79.7619V45.2381Z" fill="#001E36"/>
<path d="M28.1823 91.5903V36.6224C28.1823 36.2484 28.3437 36.0347 28.7202 36.0347C34.2785 36.0347 39.8343 35.7142 45.3942 35.7142C54.4158 35.7142 64.1842 38.7013 67.6082 47.8403C68.415 50.0839 68.8453 52.3809 68.8453 54.7848C68.8453 59.3788 67.7696 63.1715 65.6181 66.163C59.6081 74.5193 49.1915 74.3895 39.8541 74.3895V91.5369C39.9271 92.0445 39.4804 92.2848 39.0473 92.2848H28.8278C28.3975 92.2848 28.1823 92.0711 28.1823 91.5903ZM39.9079 46.3446V64.2933C43.6102 64.5559 47.4845 64.5844 51.0418 63.4386C54.969 62.3416 57.1198 59.0497 57.1198 55.1053C57.2289 51.7441 55.3375 48.5191 52.1176 47.3061C48.6031 45.8911 43.7016 45.8063 39.9079 46.3446Z" fill="#31A8FF"/>
<path d="M102.393 60.7472C100.766 59.9167 99.0323 59.3091 97.2405 58.941C94.9379 58.4164 85.8564 56.579 85.853 61.1772C85.9336 63.7443 90.1418 65.0019 92.0012 65.7354C98.5287 67.9054 105.915 71.7844 105.77 79.5821C105.97 89.2893 96.257 93.1698 87.9312 93.1708C83.5968 93.2142 79.0815 92.5641 75.1148 90.7626C74.7361 90.5684 74.4924 90.1534 74.5086 89.7305V80.4421C74.4659 80.0697 74.8787 79.7442 75.2014 80.0121C79.088 82.2881 83.6949 83.3931 88.191 83.4522C90.1758 83.4522 94.1095 83.2659 94.0797 80.4421C94.0797 77.7322 89.374 76.4862 87.4982 75.7978C84.7791 74.8579 82.2009 73.556 79.8343 71.9277C76.527 69.6433 74.4522 65.9806 74.5086 61.9512C74.4893 52.8111 83.4299 48.7085 91.4818 48.7065C95.2459 48.6765 99.288 48.9464 102.792 50.4266C103.296 50.5702 103.4 51.0841 103.398 51.5447V60.2311C103.43 60.7703 102.812 60.9539 102.393 60.7472Z" fill="#31A8FF"/>
</svg>
