<svg width="133" height="125" viewBox="0 0 133 125" fill="none" xmlns="http://www.w3.org/2000/svg">
<path d="M0.351318 45.2381C0.351318 29.4033 0.351318 21.4859 3.61141 15.4378C6.47906 10.1177 11.0548 5.79237 16.6829 3.08166C23.0812 0 31.457 0 48.2087 0H84.7314C101.483 0 109.859 0 116.257 3.08166C121.885 5.79237 126.461 10.1177 129.329 15.4378C132.589 21.4859 132.589 29.4033 132.589 45.2381V79.7619C132.589 95.5967 132.589 103.514 129.329 109.562C126.461 114.882 121.885 119.208 116.257 121.918C109.859 125 101.483 125 84.7314 125H48.2087C31.457 125 23.0812 125 16.6829 121.918C11.0548 119.208 6.47906 114.882 3.61141 109.562C0.351318 103.514 0.351318 95.5967 0.351318 79.7619V45.2381Z" fill="#470137"/>
<path d="M69.5232 36.7581L53.0231 63.1614L70.6763 91.1989C71.0433 91.8346 70.6763 91.9749 70.1441 91.9749H57.5475C56.6602 91.9749 56.0393 91.9446 55.6844 91.3708C54.5007 89.1348 53.3179 86.913 52.1361 84.7055C50.9523 82.4989 49.6957 80.2484 48.3661 77.9541C47.0354 75.6616 45.7196 73.3395 44.4185 70.9877C43.2347 73.2817 41.9188 75.5751 40.6482 77.8682C39.3759 80.1621 38.1192 82.4412 36.8782 84.7055C35.6363 86.9711 34.3648 89.2216 33.0638 91.4568C32.8267 91.9729 32.4122 92.0261 31.8216 92.0261H19.6686C19.1911 92.0261 19.1335 91.6868 19.4026 91.2848L36.5233 64.0214L19.8459 36.672C19.543 36.2818 19.8037 35.8659 20.2896 35.898H32.7974C33.339 35.869 33.8177 36.0623 34.1281 36.5001C35.1927 38.7939 36.3754 41.0873 37.6764 43.3804C38.9767 45.6743 40.2925 47.9391 41.624 50.1747C42.9547 52.4108 44.2706 54.6756 45.3943 56.9691C46.5764 54.6187 47.774 52.3253 48.987 50.0888C50.1985 47.8527 51.4404 45.6022 52.7127 43.3374C53.9839 41.0731 55.211 38.8226 56.3942 36.5861C56.5513 36.0955 56.9271 35.8469 57.4587 35.898H69.0795C69.5232 35.898 69.7067 36.4705 69.5232 36.7581Z" fill="#FF61F6"/>
<path d="M94.982 93.0916C87.1586 93.2069 78.9641 90.1623 74.8451 83.4161C72.8337 80.1774 71.8283 76.1209 71.8289 71.2465C71.7955 67.2992 72.8358 63.4132 74.8451 59.9799C80.0291 51.2202 90.4729 47.9382 100.393 48.7994V31.8565C100.393 31.456 100.571 31.2545 100.926 31.2545H112.103C112.408 31.2122 112.679 31.4743 112.635 31.7704V82.599C112.635 84.6962 112.855 86.7859 112.99 88.8773C113.012 89.2346 112.793 89.5879 112.458 89.7374C106.935 91.9704 100.959 93.0657 94.982 93.0916ZM100.393 82.427V58.9479C92.291 56.8199 84.4245 62.6536 84.4255 70.7304C84.2331 79.0808 91.8481 84.85 100.393 82.427Z" fill="#FF61F6"/>
</svg>
