<svg width="854" height="432" viewBox="0 0 854 432" fill="none" xmlns="http://www.w3.org/2000/svg">
<g filter="url(#filter0_d_2_78)">
<path d="M8.3252 405.603C24.7603 403.041 40.8667 398.146 55.9177 393.251C78.6111 385.45 100.256 376.495 120.637 366.474C209.041 322.865 279.798 266.663 342.77 208.564C364.811 188.023 387.249 165.433 407.507 144.076C438.18 112.022 472.746 81.1468 516.204 55.308C592.463 9.63771 690.139 -10.3137 780.739 33.0779C799.681 42.1614 816.137 53.136 829.457 65.5672L826.204 67.0281C810.983 56.2535 793.375 46.9194 773.923 39.3141C660.538 -5.04786 552.794 43.1954 483.161 100.531C455.481 122.849 445.88 133.379 422.386 157.669C388.357 192.154 341.824 236.218 317.57 254.619C268.871 291.568 200.062 344.157 136.986 371.348C102.853 385.848 66.2113 398.756 26.2135 405.483C20.4861 406.49 14.6446 407.219 8.74039 407.664L8.3252 405.658V405.603Z" fill="#5199FF" fill-opacity="0.6" shape-rendering="crispEdges"/>
</g>
<defs>
<filter id="filter0_d_2_78" x="0.325195" y="0.97998" width="853.131" height="430.684" filterUnits="userSpaceOnUse" color-interpolation-filters="sRGB">
<feFlood flood-opacity="0" result="BackgroundImageFix"/>
<feColorMatrix in="SourceAlpha" type="matrix" values="0 0 0 0 0 0 0 0 0 0 0 0 0 0 0 0 0 0 127 0" result="hardAlpha"/>
<feOffset dx="8" dy="8"/>
<feGaussianBlur stdDeviation="8"/>
<feComposite in2="hardAlpha" operator="out"/>
<feColorMatrix type="matrix" values="0 0 0 0 0.317647 0 0 0 0 0.6 0 0 0 0 1 0 0 0 0.9 0"/>
<feBlend mode="normal" in2="BackgroundImageFix" result="effect1_dropShadow_2_78"/>
<feBlend mode="normal" in="SourceGraphic" in2="effect1_dropShadow_2_78" result="shape"/>
</filter>
</defs>
</svg>
