<svg width="201" height="111" viewBox="0 0 201 111" fill="none" xmlns="http://www.w3.org/2000/svg">
<path d="M79.8358 36.2179L64.307 79.6909H49.5024L41.2955 56.0294L32.7668 79.6909H17.9623L2.43356 36.2179H16.9163L25.8472 62.5263L35.1001 36.2179H48.1346L57.1461 62.7669L66.399 36.2179H79.8358ZM127.903 58.0346C127.903 58.1416 127.823 59.3981 127.662 61.8044H95.9606C96.6043 64.0502 97.8378 65.788 99.6617 67.0179C101.539 68.1942 103.872 68.7825 106.662 68.7825C108.754 68.7825 110.55 68.4885 112.053 67.9002C113.608 67.312 115.164 66.3495 116.719 65.0127L124.765 73.3544C120.527 78.0599 114.332 80.4127 106.179 80.4127C101.083 80.4127 96.6043 79.4502 92.7422 77.5252C88.8801 75.6002 85.8762 72.9265 83.7307 69.5044C81.6387 66.0823 80.5928 62.2054 80.5928 57.8742C80.5928 53.5963 81.6118 49.7731 83.6502 46.4044C85.7422 42.9823 88.6118 40.3086 92.2594 38.3836C95.9068 36.4586 100.01 35.4961 104.57 35.4961C108.915 35.4961 112.857 36.4052 116.397 38.2231C119.938 39.9877 122.727 42.5812 124.765 46.0034C126.857 49.3721 127.903 53.3825 127.903 58.0346ZM104.65 46.3242C102.29 46.3242 100.305 46.9927 98.6962 48.3294C97.1406 49.6661 96.1482 51.4843 95.7192 53.7836H113.581C113.152 51.4843 112.133 49.6661 110.524 48.3294C108.968 46.9927 107.01 46.3242 104.65 46.3242ZM162.388 35.4961C166.358 35.4961 169.951 36.4052 173.17 38.2231C176.442 40.0411 179.017 42.6614 180.894 46.0836C182.825 49.4523 183.79 53.3825 183.79 57.8742C183.79 62.3659 182.825 66.3229 180.894 69.745C179.017 73.1672 176.442 75.814 173.17 77.6856C169.951 79.5036 166.358 80.4127 162.388 80.4127C156.649 80.4127 152.358 78.7284 149.515 75.3596V79.6909H134.951V20.1763H150.239V39.9877C153.189 36.9932 157.239 35.4961 162.388 35.4961ZM159.17 68.3013C161.852 68.3013 164.051 67.3922 165.767 65.5742C167.484 63.7026 168.342 61.1359 168.342 57.8742C168.342 54.6659 167.484 52.1526 165.767 50.3346C164.051 48.5166 161.852 47.6075 159.17 47.6075C156.488 47.6075 154.289 48.5166 152.572 50.3346C150.856 52.1526 149.997 54.6659 149.997 57.8742C149.997 61.1359 150.856 63.7026 152.572 65.5742C154.289 67.3922 156.488 68.3013 159.17 68.3013Z" fill="#309D9D"/>
<path d="M33.8845 78.0798H28.4741V96.8785H19.6963V78.0798H16.3289V73.7829L19.8759 71.6345V71.2091C19.8759 69.016 20.1678 67.2331 20.7515 65.8604C21.3351 64.473 22.2631 63.4509 23.5352 62.7946C24.8075 62.138 26.4686 61.8099 28.519 61.8099C29.8362 61.8099 31.0259 61.9141 32.0886 62.1231C33.1661 62.3319 34.2886 62.6303 35.456 63.0183L33.5702 68.6803C33.1362 68.5609 32.6498 68.4566 32.1109 68.367C31.5872 68.2774 31.0185 68.2327 30.4047 68.2327C29.7314 68.2327 29.2374 68.4415 28.9231 68.8593C28.6238 69.2621 28.4741 69.926 28.4741 70.8512V71.5224H33.8845V78.0798ZM46.1197 96.8785H37.3417V62.056H46.1197V96.8785ZM49.1279 71.5224H58.3771L62.6875 86.0692C62.7475 86.278 62.8072 86.5392 62.867 86.8525C62.927 87.1509 62.9794 87.4717 63.0243 87.8148C63.0691 88.1581 63.0992 88.4936 63.1141 88.822H63.2937C63.3684 88.2101 63.4507 87.6805 63.5406 87.2329C63.6454 86.7705 63.7426 86.3974 63.8325 86.1139L68.2551 71.5224H77.2125L67.1551 98.4898C66.3767 100.549 65.4714 102.272 64.4385 103.66C63.4208 105.062 62.1562 106.114 60.6445 106.815C59.1479 107.531 57.2847 107.889 55.0546 107.889C54.2463 107.889 53.5505 107.845 52.9668 107.755C52.398 107.68 51.8967 107.598 51.4627 107.509V100.638C51.7918 100.698 52.196 100.758 52.6748 100.817C53.1539 100.877 53.6553 100.907 54.179 100.907C55.1518 100.907 55.9376 100.713 56.5362 100.325C57.15 99.937 57.6514 99.4223 58.0404 98.7809C58.4295 98.1541 58.7663 97.4753 59.0507 96.7443L59.1404 96.5206L49.1279 71.5224ZM89.0436 62.056V69.9336C89.0436 70.8287 89.0135 71.6867 88.9537 72.5071C88.8939 73.3129 88.819 74.0737 88.7291 74.7899H89.0436C89.702 73.7604 90.5627 72.8875 91.6252 72.1716C92.6877 71.4404 94.0797 71.0748 95.8008 71.0748C98.45 71.0748 100.613 72.1939 102.289 74.4319C103.98 76.6697 104.826 79.9074 104.826 84.1447C104.826 87.0242 104.436 89.4485 103.658 91.418C102.88 93.3725 101.787 94.8495 100.381 95.8491C98.9886 96.8339 97.3723 97.3261 95.5314 97.3261C93.7355 97.3261 92.3661 97.0202 91.4231 96.4085C90.4953 95.782 89.702 95.1105 89.0436 94.3944H88.5047L87.1128 96.8785H80.2656V62.056H89.0436ZM92.5905 77.9455C91.7824 77.9455 91.1164 78.132 90.5925 78.5049C90.0686 78.878 89.6797 79.4598 89.4252 80.2504C89.1707 81.0264 89.0436 82.0185 89.0436 83.2271V84.4579C89.0436 86.4274 89.3054 87.8895 89.8293 88.8442C90.3679 89.7991 91.3183 90.2765 92.6804 90.2765C93.713 90.2765 94.5063 89.7469 95.0599 88.6877C95.6137 87.6282 95.8907 86.0841 95.8907 84.0551C95.8907 82.026 95.6213 80.5041 95.0824 79.4896C94.5436 78.4602 93.713 77.9455 92.5905 77.9455ZM118.677 71.5224V96.8785H109.899V71.5224H118.677ZM114.322 61.3174C115.579 61.3174 116.672 61.5786 117.599 62.1007C118.542 62.6229 119.014 63.6599 119.014 65.2114C119.014 66.7184 118.542 67.7405 117.599 68.2774C116.672 68.7997 115.579 69.0607 114.322 69.0607C113.035 69.0607 111.935 68.7997 111.022 68.2774C110.124 67.7405 109.675 66.7184 109.675 65.2114C109.675 63.6599 110.124 62.6229 111.022 62.1007C111.935 61.5786 113.035 61.3174 114.322 61.3174ZM140.162 71.0748C140.64 71.0748 141.142 71.1122 141.666 71.1869C142.189 71.2465 142.579 71.2987 142.833 71.3434L142.047 79.6014C141.763 79.527 141.396 79.4672 140.947 79.4225C140.498 79.3629 139.87 79.3331 139.062 79.3331C138.508 79.3331 137.916 79.3851 137.288 79.4896C136.659 79.5941 136.061 79.8178 135.492 80.1611C134.938 80.4892 134.482 80.9966 134.122 81.6827C133.763 82.3542 133.584 83.2642 133.584 84.413V96.8785H124.806V71.5224H131.339L132.708 75.5731H133.135C133.599 74.7376 134.19 73.9843 134.908 73.3129C135.641 72.6265 136.457 72.082 137.355 71.6792C138.268 71.2763 139.204 71.0748 140.162 71.0748ZM154.305 97.3261C151.686 97.3261 149.53 96.2147 147.839 93.9915C146.148 91.7686 145.302 88.516 145.302 84.234C145.302 79.9074 146.17 76.6326 147.907 74.4094C149.643 72.1865 151.888 71.0748 154.641 71.0748C155.779 71.0748 156.759 71.2389 157.582 71.5673C158.406 71.8955 159.116 72.343 159.715 72.91C160.329 73.4621 160.86 74.0886 161.309 74.7899H161.489C161.384 74.1484 161.287 73.2682 161.197 72.1492C161.107 71.0153 161.062 69.9111 161.062 68.837V62.056H169.907V96.8785H163.285L161.399 93.6782H161.062C160.658 94.3497 160.149 94.9613 159.536 95.5134C158.937 96.0655 158.204 96.5055 157.336 96.8339C156.482 97.162 155.472 97.3261 154.305 97.3261ZM157.897 90.4108C159.304 90.4108 160.291 89.9708 160.86 89.0905C161.444 88.1952 161.758 86.8376 161.803 85.0173V84.3237C161.803 82.3244 161.519 80.7952 160.95 79.7357C160.396 78.6616 159.348 78.1245 157.807 78.1245C156.759 78.1245 155.891 78.6318 155.203 79.6464C154.514 80.6609 154.17 82.2348 154.17 84.3683C154.17 86.4721 154.514 88.0089 155.203 88.9785C155.906 89.9334 156.804 90.4108 157.897 90.4108Z" fill="white"/>
<path d="M155.354 57.7139C155.36 57.7739 155.395 57.8255 155.443 57.8606C155.493 57.9041 155.559 57.9245 155.633 57.905C155.736 57.9039 155.817 57.8069 155.829 57.7008C155.946 57.5358 156.086 57.3949 156.244 57.2801C157.71 56.8238 159.187 56.6595 160.709 57.2491C161.667 57.6204 162.578 58.1271 163.553 58.4362C165.037 58.9058 166.547 59.3121 168.068 59.643C169.687 59.9948 171.332 60.2244 172.965 60.5168C173.071 60.5359 173.213 60.6135 173.254 60.7027C173.986 62.2959 174.574 63.9594 174.614 65.7077C174.637 66.6929 175.177 67.5154 175.15 68.4982C175.131 69.1605 175.404 69.8313 175.55 70.497C175.565 70.5651 175.595 70.6378 175.638 70.6912C176.211 71.4 176.238 72.3022 176.512 73.1166C176.608 73.3992 176.722 73.6813 176.87 73.9389C177.856 75.6538 178.771 77.4128 180.083 78.9214C181.121 80.1163 182.29 81.1609 183.603 82.0425C184.171 82.4236 184.759 82.7733 185.324 83.1283C185.502 82.9885 185.727 82.8975 185.733 82.7105C186.537 82.4923 186.681 81.4223 186.168 80.8966C186.483 80.4699 186.45 79.8024 186.07 79.4261C186.731 79.0257 186.716 77.914 186.027 77.5448C186.095 77.0354 185.845 76.4758 185.274 76.3383C185.49 75.756 185.233 74.98 184.502 74.862C184.501 74.856 184.499 74.8501 184.497 74.8439C185.024 74.356 184.928 73.3247 184.21 73.0339C184.29 72.5721 184.103 72.057 183.65 71.848C183.64 71.8095 183.631 71.7712 183.622 71.7334C183.798 71.3062 183.71 70.7629 183.361 70.4521C183.535 70.0362 183.459 69.5059 183.133 69.1896C183.087 68.8001 183.076 68.4038 183.15 67.9923C183.242 67.4791 183.036 66.9094 182.948 66.3681C182.632 64.4459 181.68 62.7551 180.969 60.9761C180.923 60.859 180.881 60.7391 180.814 60.5553C181.501 60.4554 182.159 60.3528 182.819 60.2654C184.366 60.0606 185.91 59.8413 187.461 59.6744C187.991 59.6171 188.539 59.6781 189.075 59.7225C189.494 59.7576 189.921 59.8364 190.276 59.5587C190.687 59.2363 191.161 59.2143 191.644 59.1574C191.781 59.1414 191.916 59.118 192.052 59.0912H192.812C192.958 59.0912 193.027 58.972 193.019 58.859C193.045 58.8568 193.072 58.8547 193.098 58.8524C193.373 58.8297 193.376 58.3998 193.098 58.4227C193.01 58.4303 192.921 58.4374 192.833 58.4447C192.845 58.4122 192.849 58.376 192.846 58.3411L193.158 58.2946C193.275 58.277 193.337 58.133 193.309 58.0304C193.283 57.9353 193.207 57.8876 193.121 57.8787C193.087 57.8493 193.042 57.8301 192.984 57.831C191.867 57.8461 190.774 57.6853 189.709 57.3509C189.703 57.3491 189.697 57.3486 189.691 57.3472C188.83 57.0633 187.941 56.9258 187.077 56.6817C186.075 56.3989 185.13 55.9131 184.17 55.4933C183.835 55.3473 183.526 55.1408 183.216 54.9453C183.061 54.8484 182.93 54.7139 182.788 54.5982C182.734 54.5551 182.676 54.4838 182.619 54.4831C181.886 54.4749 181.425 53.8822 180.799 53.6444C180.385 53.4872 179.992 53.2791 179.582 53.1109C179.151 52.9337 178.71 52.7788 178.275 52.6108C177.661 52.3741 177.379 51.8271 177.094 51.3043C176.527 50.2628 176.021 49.1882 175.435 48.1583C175.132 47.6246 174.764 47.1071 174.334 46.6713C173.737 46.0656 173.03 45.5685 172.415 44.9789C171.738 44.3301 171.031 43.6868 170.487 42.9338C169.96 42.2037 169.658 41.3168 169.194 40.5356C168.766 39.8137 168.252 39.1425 167.78 38.4458C167.739 38.3858 167.701 38.3232 167.663 38.2602C167.63 38.0532 167.544 37.8568 167.405 37.7019C167.233 37.3087 167.031 36.9388 166.628 36.694C166.602 36.6785 166.579 36.6567 166.558 36.6331C166.553 36.2941 166.41 35.9582 166.129 35.759C166.123 35.7483 166.117 35.7373 166.112 35.726C166.184 35.2668 165.996 34.759 165.545 34.5532C165.586 34.233 165.486 33.8975 165.244 33.6562L164.985 33.3982C164.833 33.2465 164.643 33.1511 164.444 33.1106C164.586 32.6027 164.388 31.9874 163.851 31.7812C164 31.1679 163.664 30.4199 162.844 30.4199C162.196 30.4199 161.85 30.887 161.807 31.3856C161.63 31.7498 161.464 32.1192 161.325 32.4973C160.597 34.4771 160.59 36.4708 161.089 38.5223C161.339 39.5467 161.636 40.4932 162.338 41.2886C162.375 41.3303 162.406 41.386 162.416 41.4399C162.555 42.148 163.03 42.6036 163.561 43.0408C163.827 43.259 164.008 43.5766 164.232 43.845C164.402 44.0482 164.548 44.293 164.76 44.4369C165.993 45.2724 166.859 46.4178 167.411 47.761C167.756 48.5995 167.622 49.5363 167.447 50.4198C167.407 50.6265 167.169 50.8861 166.966 50.9537C165.969 51.2842 164.963 51.591 163.944 51.8433C162.411 52.2235 160.822 52.4238 159.509 53.4225C159.042 53.7777 158.66 54.1627 158.587 54.7799C158.573 54.8906 158.465 55.0006 158.38 55.0911C157.738 55.7763 156.982 56.2129 156.011 56.2754C155.301 56.321 154.96 56.94 155.224 57.4779C155.253 57.5631 155.297 57.6426 155.354 57.7139Z" fill="#FFFEFE"/>
</svg>
