<svg width="87" height="48" viewBox="0 0 87 48" fill="none" xmlns="http://www.w3.org/2000/svg">
<path d="M67.1777 24.9101C67.18 24.9363 67.1953 24.9588 67.2163 24.9741C67.2379 24.9931 67.2666 25.002 67.2987 24.9935C67.3435 24.993 67.3791 24.9507 67.384 24.9044C67.4351 24.8324 67.496 24.7709 67.5648 24.7208C68.2023 24.5217 68.8447 24.45 69.507 24.7073C69.9237 24.8693 70.32 25.0904 70.7443 25.2253C71.3898 25.4302 72.0464 25.6075 72.7081 25.7519C73.4123 25.9054 74.1281 26.0056 74.8382 26.1332C74.8844 26.1415 74.9461 26.1754 74.964 26.2143C75.2826 26.9095 75.5381 27.6354 75.5556 28.3983C75.5655 28.8282 75.8004 29.1871 75.7886 29.616C75.7806 29.905 75.8993 30.1977 75.963 30.4882C75.9695 30.5179 75.9823 30.5496 76.0011 30.5729C76.2505 30.8822 76.2619 31.2759 76.3814 31.6313C76.4229 31.7546 76.4725 31.8777 76.537 31.9901C76.9659 32.7384 77.3641 33.506 77.9345 34.1643C78.3862 34.6857 78.8946 35.1415 79.466 35.5262C79.7128 35.6925 79.9688 35.8451 80.2146 36C80.2918 35.939 80.3897 35.8993 80.3926 35.8177C80.7421 35.7225 80.8048 35.2556 80.5816 35.0262C80.7187 34.84 80.7041 34.5487 80.5391 34.3845C80.8267 34.2098 80.8202 33.7247 80.5202 33.5636C80.5499 33.3413 80.441 33.0971 80.1929 33.0371C80.2869 32.783 80.1749 32.4444 79.8571 32.3929C79.8563 32.3903 79.8555 32.3877 79.8547 32.385C80.0838 32.1721 80.0421 31.7221 79.7301 31.5952C79.7645 31.3937 79.6833 31.1689 79.4861 31.0777C79.482 31.0609 79.4782 31.0442 79.4743 31.0277C79.5505 30.8413 79.5124 30.6042 79.3605 30.4686C79.4363 30.2871 79.4034 30.0557 79.2612 29.9177C79.2413 29.7477 79.2368 29.5748 79.2688 29.3952C79.3089 29.1713 79.2194 28.9227 79.1808 28.6865C79.0435 27.8477 78.6292 27.1099 78.3202 26.3336C78.2999 26.2825 78.282 26.2302 78.2527 26.15C78.5517 26.1064 78.8379 26.0616 79.1249 26.0235C79.7976 25.9341 80.4696 25.8384 81.144 25.7656C81.3747 25.7406 81.6129 25.7672 81.8462 25.7866C82.0284 25.8019 82.2144 25.8363 82.3685 25.7151C82.5475 25.5744 82.7535 25.5648 82.9638 25.54C83.0232 25.533 83.0822 25.5228 83.141 25.5111H83.4718C83.5355 25.5111 83.5653 25.4591 83.5618 25.4098C83.5733 25.4088 83.5848 25.4079 83.5963 25.4069C83.716 25.397 83.717 25.2094 83.5963 25.2194C83.5577 25.2227 83.5193 25.2258 83.4807 25.229C83.4861 25.2148 83.4879 25.199 83.4867 25.1838L83.6224 25.1635C83.673 25.1558 83.7003 25.093 83.6879 25.0482C83.6766 25.0067 83.6438 24.9859 83.6064 24.982C83.5916 24.9692 83.5718 24.9608 83.5465 24.9612C83.0607 24.9678 82.5853 24.8976 82.122 24.7517C82.1192 24.7509 82.1167 24.7507 82.114 24.7501C81.7398 24.6262 81.3529 24.5662 80.9769 24.4597C80.5413 24.3363 80.13 24.1243 79.7123 23.9411C79.5668 23.8774 79.4324 23.7873 79.2974 23.702C79.2303 23.6597 79.1733 23.601 79.1112 23.5505C79.0879 23.5317 79.0626 23.5006 79.0379 23.5003C78.7189 23.4967 78.5185 23.2381 78.246 23.1343C78.0662 23.0657 77.895 22.9749 77.7168 22.9015C77.5291 22.8242 77.3374 22.7566 77.1481 22.6833C76.8813 22.58 76.7583 22.3413 76.6346 22.1132C76.388 21.6587 76.1676 21.1898 75.9129 20.7404C75.7811 20.5075 75.6209 20.2817 75.4339 20.0915C75.1742 19.8272 74.8668 19.6103 74.5991 19.353C74.3046 19.0699 73.9969 18.7892 73.7604 18.4606C73.5311 18.142 73.3998 17.755 73.1981 17.4141C73.0116 17.0991 72.7881 16.8062 72.583 16.5022C72.5651 16.476 72.5483 16.4487 72.532 16.4212C72.5178 16.3309 72.4801 16.2452 72.4199 16.1776C72.345 16.006 72.257 15.8446 72.0816 15.7378C72.0705 15.731 72.0604 15.7215 72.0512 15.7112C72.0492 15.5633 71.9869 15.4167 71.8645 15.3298C71.8621 15.3251 71.8596 15.3203 71.8572 15.3154C71.8888 15.115 71.8066 14.8934 71.6106 14.8036C71.6283 14.6639 71.5848 14.5175 71.4796 14.4122L71.367 14.2996C71.3009 14.2334 71.2184 14.1918 71.1316 14.1741C71.1934 13.9525 71.1075 13.684 70.8738 13.594C70.9384 13.3264 70.7925 13 70.4356 13C70.1537 13 70.0034 13.2038 69.9844 13.4214C69.9077 13.5803 69.8354 13.7415 69.7749 13.9065C69.4584 14.7704 69.4552 15.6404 69.6724 16.5356C69.7809 16.9826 69.91 17.3956 70.2156 17.7427C70.2317 17.7609 70.2451 17.7852 70.2497 17.8087C70.31 18.1177 70.5167 18.3165 70.7478 18.5073C70.8631 18.6025 70.942 18.7411 71.0396 18.8582C71.1136 18.9469 71.1768 19.0537 71.2692 19.1165C71.8057 19.4811 72.1822 19.9809 72.4225 20.567C72.5725 20.9329 72.5143 21.3417 72.4382 21.7272C72.4204 21.8174 72.3169 21.9307 72.2286 21.9602C71.7952 22.1044 71.3573 22.2383 70.9141 22.3484C70.2472 22.5143 69.556 22.6017 68.9848 23.0375C68.7817 23.1925 68.6155 23.3605 68.5837 23.6298C68.578 23.6781 68.531 23.7261 68.4938 23.7656C68.2145 24.0646 67.8857 24.2551 67.4635 24.2824C67.1543 24.3023 67.0063 24.5724 67.1212 24.8071C67.1337 24.8443 67.1528 24.879 67.1777 24.9101Z" fill="black"/>
<path d="M34.3271 15.53L27.5721 34.5H21.1321L17.5621 24.175L13.8521 34.5H7.41215L0.657146 15.53H6.95715L10.8421 27.01L14.8671 15.53H20.5371L24.4571 27.115L28.4821 15.53H34.3271ZM55.2364 25.05C55.2364 25.0967 55.2014 25.645 55.1314 26.695H41.3414C41.6214 27.675 42.158 28.4333 42.9514 28.97C43.768 29.4833 44.783 29.74 45.9964 29.74C46.9064 29.74 47.688 29.6117 48.3414 29.355C49.018 29.0983 49.6947 28.6783 50.3714 28.095L53.8714 31.735C52.028 33.7883 49.333 34.815 45.7864 34.815C43.5697 34.815 41.6214 34.395 39.9414 33.555C38.2614 32.715 36.9547 31.5483 36.0214 30.055C35.1114 28.5617 34.6564 26.87 34.6564 24.98C34.6564 23.1133 35.0997 21.445 35.9864 19.975C36.8964 18.4817 38.1447 17.315 39.7314 16.475C41.318 15.635 43.103 15.215 45.0864 15.215C46.9764 15.215 48.6914 15.6117 50.2314 16.405C51.7714 17.175 52.9847 18.3067 53.8714 19.8C54.7814 21.27 55.2364 23.02 55.2364 25.05ZM45.1214 19.94C44.0947 19.94 43.2314 20.2317 42.5314 20.815C41.8547 21.3983 41.423 22.1917 41.2364 23.195H49.0064C48.8197 22.1917 48.3764 21.3983 47.6764 20.815C46.9997 20.2317 46.148 19.94 45.1214 19.94ZM70.2374 15.215C71.9641 15.215 73.5274 15.6117 74.9274 16.405C76.3508 17.1983 77.4708 18.3417 78.2874 19.835C79.1274 21.305 79.5474 23.02 79.5474 24.98C79.5474 26.94 79.1274 28.6667 78.2874 30.16C77.4708 31.6533 76.3508 32.8083 74.9274 33.625C73.5274 34.4183 71.9641 34.815 70.2374 34.815C67.7408 34.815 65.8741 34.08 64.6374 32.61V34.5H58.3024V8.53H64.9524V17.175C66.2358 15.8683 67.9974 15.215 70.2374 15.215ZM68.8374 29.53C70.0041 29.53 70.9608 29.1333 71.7074 28.34C72.4541 27.5233 72.8274 26.4033 72.8274 24.98C72.8274 23.58 72.4541 22.4833 71.7074 21.69C70.9608 20.8967 70.0041 20.5 68.8374 20.5C67.6708 20.5 66.7141 20.8967 65.9674 21.69C65.2208 22.4833 64.8474 23.58 64.8474 24.98C64.8474 26.4033 65.2208 27.5233 65.9674 28.34C66.7141 29.1333 67.6708 29.53 68.8374 29.53Z" fill="#267070" fill-opacity="0.22"/>
<path d="M14.3383 33.7969H11.9848V42H8.16644V33.7969H6.7016V31.9219L8.24457 30.9844V30.7988C8.24457 29.8418 8.37152 29.0638 8.62543 28.4648C8.87933 27.8594 9.28298 27.4134 9.83636 27.127C10.3898 26.8405 11.1124 26.6973 12.0043 26.6973C12.5773 26.6973 13.0948 26.7428 13.5571 26.834C14.0258 26.9251 14.5141 27.0553 15.0219 27.2246L14.2016 29.6953C14.0128 29.6432 13.8012 29.5977 13.5668 29.5586C13.339 29.5195 13.0916 29.5 12.8246 29.5C12.5317 29.5 12.3168 29.5911 12.1801 29.7734C12.0499 29.9492 11.9848 30.2389 11.9848 30.6426V30.9355H14.3383V33.7969ZM19.6606 42H15.8422V26.8047H19.6606V42ZM20.9692 30.9355H24.9926L26.8676 37.2832C26.8937 37.3743 26.9197 37.4883 26.9457 37.625C26.9718 37.7552 26.9946 37.8952 27.0141 38.0449C27.0336 38.1947 27.0467 38.3411 27.0532 38.4844H27.1313C27.1638 38.2174 27.1996 37.9863 27.2387 37.791C27.2843 37.5892 27.3266 37.4264 27.3657 37.3027L29.2895 30.9355H33.186L28.811 42.7031C28.4724 43.6016 28.0786 44.3535 27.6293 44.959C27.1866 45.571 26.6365 46.0299 25.9789 46.3359C25.3279 46.6484 24.5174 46.8047 23.5473 46.8047C23.1957 46.8047 22.893 46.7852 22.6391 46.7461C22.3917 46.7135 22.1736 46.6777 21.9848 46.6387V43.6406C22.128 43.6667 22.3038 43.6927 22.5121 43.7188C22.7205 43.7448 22.9386 43.7578 23.1664 43.7578C23.5896 43.7578 23.9314 43.6732 24.1918 43.5039C24.4588 43.3346 24.6769 43.11 24.8461 42.8301C25.0154 42.5566 25.1619 42.2604 25.2856 41.9414L25.3246 41.8438L20.9692 30.9355ZM38.3325 26.8047V30.2422C38.3325 30.6328 38.3194 31.0072 38.2934 31.3652C38.2674 31.7168 38.2348 32.0488 38.1957 32.3613H38.3325C38.6189 31.9121 38.9933 31.5312 39.4555 31.2188C39.9177 30.8997 40.5232 30.7402 41.2719 30.7402C42.4243 30.7402 43.365 31.2285 44.0942 32.2051C44.8299 33.1816 45.1977 34.5944 45.1977 36.4434C45.1977 37.6999 45.0284 38.7578 44.6899 39.6172C44.3513 40.4701 43.8761 41.1146 43.2641 41.5508C42.6586 41.9805 41.9555 42.1953 41.1547 42.1953C40.3735 42.1953 39.7778 42.0618 39.3676 41.7949C38.964 41.5215 38.6189 41.2285 38.3325 40.916H38.0981L37.4926 42H34.5141V26.8047H38.3325ZM39.8754 33.7383C39.5239 33.7383 39.2342 33.8197 39.0063 33.9824C38.7784 34.1452 38.6092 34.3991 38.4985 34.7441C38.3878 35.0827 38.3325 35.5156 38.3325 36.043V36.5801C38.3325 37.4395 38.4464 38.0775 38.6743 38.4941C38.9086 38.9108 39.322 39.1191 39.9145 39.1191C40.3637 39.1191 40.7088 38.888 40.9496 38.4258C41.1905 37.9635 41.311 37.2897 41.311 36.4043C41.311 35.5189 41.1938 34.8548 40.9594 34.4121C40.725 33.9629 40.3637 33.7383 39.8754 33.7383ZM51.2231 30.9355V42H47.4047V30.9355H51.2231ZM49.3286 26.4824C49.8754 26.4824 50.3507 26.5964 50.7543 26.8242C51.1645 27.0521 51.3696 27.5046 51.3696 28.1816C51.3696 28.8392 51.1645 29.2852 50.7543 29.5195C50.3507 29.7474 49.8754 29.8613 49.3286 29.8613C48.7687 29.8613 48.2901 29.7474 47.893 29.5195C47.5024 29.2852 47.3071 28.8392 47.3071 28.1816C47.3071 27.5046 47.5024 27.0521 47.893 26.8242C48.2901 26.5964 48.7687 26.4824 49.3286 26.4824ZM60.5688 30.7402C60.7771 30.7402 60.9952 30.7565 61.2231 30.7891C61.4509 30.8151 61.6202 30.8379 61.7309 30.8574L61.3891 34.4609C61.2654 34.4284 61.1059 34.4023 60.9106 34.3828C60.7153 34.3568 60.4418 34.3438 60.0903 34.3438C59.8494 34.3438 59.5922 34.3665 59.3188 34.4121C59.0453 34.4577 58.7849 34.5553 58.5375 34.7051C58.2967 34.8483 58.0981 35.0697 57.9418 35.3691C57.7856 35.6621 57.7075 36.0592 57.7075 36.5605V42H53.8891V30.9355H56.7309L57.3266 32.7031H57.5121C57.714 32.3385 57.9711 32.0098 58.2836 31.7168C58.6026 31.4173 58.9575 31.1797 59.3481 31.0039C59.7452 30.8281 60.1521 30.7402 60.5688 30.7402ZM66.7211 42.1953C65.5818 42.1953 64.6443 41.7103 63.9086 40.7402C63.173 39.7702 62.8051 38.3509 62.8051 36.4824C62.8051 34.5944 63.1827 33.1654 63.9379 32.1953C64.6931 31.2253 65.6697 30.7402 66.8676 30.7402C67.3624 30.7402 67.7888 30.8118 68.1469 30.9551C68.505 31.0983 68.8142 31.2936 69.0746 31.541C69.3416 31.7819 69.5727 32.0553 69.768 32.3613H69.8461C69.8006 32.0814 69.7582 31.6973 69.7192 31.209C69.6801 30.7142 69.6606 30.2324 69.6606 29.7637V26.8047H73.5082V42H70.6274L69.8071 40.6035H69.6606C69.4848 40.8965 69.2634 41.1634 68.9965 41.4043C68.7361 41.6452 68.4171 41.8372 68.0395 41.9805C67.6684 42.1237 67.2289 42.1953 66.7211 42.1953ZM68.2836 39.1777C68.8956 39.1777 69.3253 38.9857 69.5727 38.6016C69.8266 38.2109 69.9633 37.6185 69.9828 36.8242V36.5215C69.9828 35.6491 69.8592 34.9818 69.6118 34.5195C69.3709 34.0508 68.9151 33.8164 68.2446 33.8164C67.7888 33.8164 67.4112 34.0378 67.1118 34.4805C66.8123 34.9232 66.6625 35.61 66.6625 36.541C66.6625 37.459 66.8123 38.1296 67.1118 38.5527C67.4177 38.9694 67.8084 39.1777 68.2836 39.1777Z" fill="#303131"/>
</svg>
